<svg width="272" height="272" viewBox="0 0 272 272" fill="none" xmlns="http://www.w3.org/2000/svg">
<path d="M136.18 271.867C134.829 271.867 133.485 271.841 132.152 271.805L159.877 195.595H198.036C204.731 195.595 212.089 190.442 214.375 184.157L244.458 101.52C249.377 87.9874 241.631 76.9194 227.245 76.9194H174.292L129.873 198.987L104.683 268.179C44.9328 253.976 0.495661 200.276 0.495661 136.182C0.495661 72.0885 42.4203 21.4911 99.5553 5.50428L73.5516 76.923L30.3524 195.588H59.1103L95.8452 94.7484H117.454L80.7191 195.588H109.466L143.699 101.513C148.625 87.9838 140.872 76.9157 126.486 76.9157H102.313L130.075 0.640484C132.097 0.552584 134.126 0.497646 136.173 0.497646C211.115 0.497646 271.865 61.2475 271.865 136.182C271.865 211.117 211.115 271.867 136.18 271.867ZM218.275 94.6862H196.666L166.414 177.704H188.023L218.283 94.6862H218.275Z" fill="#024AD8"/>
</svg>
