<?xml version="1.0" encoding="UTF-8"?>
<svg id="Layer_2" data-name="Layer 2" xmlns="http://www.w3.org/2000/svg" viewBox="0 0 437.52 416.37">
  <defs>
    <style>
      .cls-1 {
        fill: #78ae41;
      }

      .cls-1, .cls-2, .cls-3, .cls-4, .cls-5, .cls-6, .cls-7, .cls-8, .cls-9, .cls-10 {
        fill-rule: evenodd;
      }

      .cls-2 {
        fill: #ec9f23;
      }

      .cls-3 {
        fill: #f86c6b;
      }

      .cls-4 {
        fill: #3a9e41;
      }

      .cls-5 {
        fill: #0e94af;
      }

      .cls-6 {
        fill: #f8fbff;
      }

      .cls-7 {
        fill: #4f89f0;
      }

      .cls-8 {
        fill: #f9a414;
      }

      .cls-10 {
        fill: #565b79;
      }
    </style>
  </defs>
  <g id="Layer_1-2" data-name="Layer 1">
    <g>
      <path class="cls-9" d="M375.32,130.11c34.34,0,62.19,27.85,62.19,62.19,0,24.92-14.75,46.88-36.73,56.76-.22,20.17-2.37,40.04-10.71,58.49-.06.13-.12.26-.2.39-9.21,18.97-20.7,35.24-34.47,48.8-12.85,12.67-27.65,22.94-44.39,30.81v5.89c0,12.62-10.3,22.92-22.92,22.92H22.93c-12.62,0-22.93-10.3-22.93-22.92V46.76c0-12.62,10.31-22.92,22.93-22.92h69.07c.17-3.51,3.07-6.29,6.61-6.29h28.93c6.52-16.8,29.47-22.64,45.22-12.69,4.92,3.11,8.71,7.53,10.72,12.69h28.92c3.55,0,6.45,2.78,6.62,6.29h69.07c12.62,0,22.92,10.3,22.92,22.92v123.3l5.39,2.27c8.44-24.89,31.91-42.22,58.92-42.22"/>
      <path class="cls-8" d="M205.77,30.81h-23.1c-5.14,0-9.68-3.23-11.39-8.11-3.17-9.12-17.1-12.27-25.99-6.65-6.99,4.42-4.26,8.47-9.96,12.52-2.01,1.43-4.43,2.23-7,2.23h-23.1v26.61h100.54"/>
      <path class="cls-3" d="M101.06,115.76c2.5-2.66,6.69-2.79,9.35-.29,2.66,2.5,2.78,6.69.27,9.35l-16.01,17.03c-2.61,2.77-7.02,2.77-9.63,0l-8.01-8.52c-2.5-2.66-2.38-6.85.28-9.35,2.66-2.5,6.84-2.37,9.35.29l3.19,3.39,11.2-11.91ZM116.92,105.75h-46.11v46.11h46.11"/>
      <path class="cls-6" d="M270.47,371.36c-21.86-16.1-39.59-38.16-51.71-63.65l-.07-.16h0c-15.91-35.04-9.41-75.78-9.41-113.63,0-3.74,2.92-6.66,6.98-6.62,15.97-.51,31.06-2.33,45.23-5.47,3.03-.67,6.03-1.41,8.98-2.2v-115.24h-51.45c-.18,3.5-3.07,6.29-6.62,6.29h-113.79c-3.55,0-6.45-2.79-6.62-6.29h-51.45v311.44h229.93v-4.48ZM146.74,341.13c-3.66,0-6.63-2.97-6.63-6.63s2.97-6.63,6.63-6.63h65.71c3.66,0,6.63,2.97,6.63,6.63s-2.97,6.63-6.63,6.63h-65.71ZM146.74,307.53c-3.66,0-6.63-2.97-6.63-6.63s2.97-6.63,6.63-6.63h49.7c3.66,0,6.62,2.97,6.62,6.63s-2.96,6.63-6.62,6.63h-49.7ZM146.74,246.69c-3.66,0-6.63-2.97-6.63-6.63s2.97-6.63,6.63-6.63h45.15c3.66,0,6.63,2.97,6.63,6.63s-2.97,6.63-6.63,6.63h-45.15ZM146.74,213.08c-3.66,0-6.63-2.97-6.63-6.63s2.97-6.63,6.63-6.63h45.15c3.66,0,6.63,2.97,6.63,6.63s-2.97,6.63-6.63,6.63h-45.15ZM146.74,152.24c-3.66,0-6.63-2.97-6.63-6.63s2.97-6.63,6.63-6.63h107.17c3.66,0,6.63,2.97,6.63,6.63s-2.97,6.63-6.63,6.63h-107.17ZM146.74,118.64c-3.66,0-6.63-2.97-6.63-6.63s2.97-6.63,6.63-6.63h73.54c3.66,0,6.62,2.97,6.62,6.63s-2.96,6.63-6.62,6.63h-73.54ZM64.17,281.39h59.38c3.65,0,6.62,2.97,6.62,6.63v59.37c0,3.66-2.97,6.63-6.62,6.63h-59.38c-3.65,0-6.62-2.97-6.62-6.63v-59.37c0-3.66,2.97-6.63,6.62-6.63M64.17,186.94h59.38c3.65,0,6.62,2.97,6.62,6.63v59.37c0,3.66-2.97,6.63-6.62,6.63h-59.38c-3.65,0-6.62-2.97-6.62-6.63v-59.37c0-3.66,2.97-6.63,6.62-6.63M64.17,92.49h59.38c3.65,0,6.62,2.97,6.62,6.63v59.37c0,3.66-2.97,6.63-6.62,6.63h-59.38c-3.65,0-6.62-2.97-6.62-6.63v-59.37c0-3.66,2.97-6.63,6.62-6.63"/>
      <path class="cls-2" d="M101.06,210.21c2.5-2.66,6.69-2.79,9.35-.29,2.66,2.5,2.78,6.69.27,9.35l-16.01,17.03c-2.61,2.77-7.02,2.77-9.63,0l-8.01-8.52c-2.5-2.66-2.38-6.85.28-9.35,2.66-2.5,6.84-2.38,9.35.29l3.19,3.39,11.2-11.91ZM116.92,200.2h-46.11v46.11h46.11"/>
      <path class="cls-7" d="M101.06,304.65c2.5-2.66,6.69-2.79,9.35-.28,2.66,2.5,2.78,6.69.27,9.35l-16.01,17.03c-2.61,2.77-7.02,2.77-9.63,0l-8.01-8.51c-2.5-2.66-2.38-6.85.28-9.35,2.66-2.5,6.84-2.37,9.35.29l3.19,3.39,11.2-11.91ZM116.92,294.64h-46.11v46.12h46.11"/>
      <path class="cls-10" d="M283.73,175.57c4.79-1.66,9.46-3.49,14.02-5.5V46.77c0-5.3-4.36-9.66-9.66-9.66h-69.06v14.02h58.06c3.66,0,6.63,2.97,6.63,6.63"/>
      <path class="cls-10" d="M297.75,387.56c-4.83-2.27-9.51-4.75-14.02-7.43v2.33c0,3.66-2.97,6.63-6.63,6.63H33.91c-3.66,0-6.63-2.97-6.63-6.63V57.76c0-3.66,2.97-6.63,6.63-6.63h58.06v-14.02H22.92c-5.29,0-9.66,4.36-9.66,9.66v346.69c0,5.3,4.36,9.66,9.66,9.66h265.17c5.29,0,9.66-4.36,9.66-9.66"/>
      <path class="cls-3" d="M313.76,293.06l-5.39-26.41c-.55-2.38.25-4.97,2.27-6.61,7.2-5.84,3.14-17.69-6.26-17.69s-13.45,11.84-6.25,17.69c1.84,1.5,2.82,3.95,2.3,6.45l-5.41,26.58"/>
      <path class="cls-1" d="M365.76,253.76c-24.09-3.72-43.75-21.31-50.3-44.56-1.75-.59-3.43-1.17-5.06-1.76-1.99-.72-3.99-1.48-6.01-2.28-10.01,3.97-20.25,7.17-30.65,9.69-9.95,2.41-20.02,4.19-30.19,5.42-.89,22.5-2.49,51.65,6.8,72.49h0c12.25,25.21,29.68,45.35,54.03,58.96,24.58-13.74,41.55-33.61,54.03-58.96,2.79-5.66,4.94-14.93,5.89-21.51.85-5.83,1.26-11.71,1.45-17.48M322,267.35l6.32,31.01c.83,4.1-2.34,7.92-6.47,7.93v.02h-34.94c-4.16,0-7.53-3.78-6.36-8.49l6.21-30.47c-12.78-14.87-2.26-38.27,17.62-38.27s30.4,23.4,17.62,38.27"/>
      <path class="cls-5" d="M350.37,222.29l-16.25-17.04c-9.87-10.34-2.65-27.83,11.37-27.83,4.18,0,8.28,1.67,11.37,4.92l5.4,5.66,24.68-25.86c9.99-10.48,27.29-3.11,27.29,11.46h-.03c0,4.14-1.5,8.29-4.52,11.46l-35.53,37.24c-6.48,6.79-17.3,6.79-23.78,0M409.93,157.7c-19.11-19.11-50.1-19.11-69.21,0-19.1,19.11-19.1,50.09,0,69.2,19.11,19.11,50.1,19.11,69.21,0,19.11-19.11,19.11-50.09,0-69.2"/>
      <path class="cls-4" d="M387.49,253.3c-2.78.55-5.64.92-8.54,1.09-.19,6.23-.64,12.53-1.54,18.72-1.15,7.9-3.63,18.24-7.09,25.39-14.16,29.24-34.17,51.23-62.78,66.52-1.87,1.01-4.19,1.11-6.22.05-28.5-14.91-48.85-37.69-62.89-66.57h0c-10.63-22.82-9.05-54.68-8.1-79.14l.2-5.14c.04-3.32,2.57-6.16,5.95-6.49,22.4-2.22,44.54-7.26,65.37-15.82,1.55-.64,3.34-.69,5.02,0,2.05.84,4.14,1.66,6.28,2.45l.35-8.96-9.13-3.83c-25.82,11.59-53.36,17.21-81.91,18.69-.12,6.05-.37,12.53-.62,19.05-1.11,28.51-2.26,58.22,8.91,82.8,8.55,17.64,19.17,32.71,31.87,45.21,12.16,11.98,26.2,21.53,41.75,28.72,15.82-7.31,29.74-16.88,41.75-28.72,12.69-12.49,23.3-27.55,31.86-45.17,6.88-15.01,9.03-32.33,9.5-48.85"/>
      <path class="cls-3" d="M343.7,196.14l16.25,17.04c1.24,1.27,3.38,1.27,4.61,0l35.53-37.24c.61-.63.9-1.48.9-2.34h-.03c0-2.84-2.8-4.04-4.46-2.34l-29.45,30.87c-2.6,2.75-6.98,2.76-9.59.01l-10.19-10.68c-1.65-1.69-4.46-.5-4.46,2.34,0,.88.29,1.73.88,2.34"/>
    </g>
  </g>
</svg>